<svg version="1" xmlns="http://www.w3.org/2000/svg" width="426.667" height="426.667" viewBox="0 0 320.000000 320.000000"><path d="M0 32v32h32v32H0v32h32v64H0v64h64v-32H32v-32h64v64h128v-64h64v32h-32v32h64v-64h-32v-64h32V96h-32V64h32V0h-32v32h-32V0h-32v32h32v32h-32v64h-32V64h-64v64H96V64H64V32h32V0H64v32H32V0H0v32zm192 112v16h32v32h-32v32h-64v-32H96v-32h32v-32h64v16z"/><path d="M128 176v16h64v-32h-64v16zM0 304v16h64v-32H0v16zM96 304v16h32v-32H96v16zM192 304v16h32v-32h-32v16zM256 304v16h64v-32h-64v16z"/></svg>